{
    "accessors" : [
        {
            "bufferView" : 0, 
            "componentType" : 5125, 
            "count" : 684, 
            "max" : [
                449
            ], 
            "min" : [
                0
            ], 
            "type" : "SCALAR"
        }, 
        {
            "bufferView" : 1, 
            "componentType" : 5126, 
            "count" : 450, 
            "max" : [
                2.794454574584961, 
                1.2681195735931396, 
                3.3922510147094727
            ], 
            "min" : [
                -2.794454574584961, 
                -0.34309864044189453, 
                -1.4374386072158813
            ], 
            "type" : "VEC3"
        }, 
        {
            "bufferView" : 2, 
            "componentType" : 5126, 
            "count" : 450, 
            "max" : [
                1.0, 
                1.0, 
                1.0
            ], 
            "min" : [
                -1.0, 
                -1.0, 
                -0.9148247241973877
            ], 
            "type" : "VEC3"
        }, 
        {
            "bufferView" : 3, 
            "componentType" : 5126, 
            "count" : 450, 
            "max" : [
                1.0, 
                1.0, 
                0.9984949231147766, 
                1.0
            ], 
            "min" : [
                -1.0, 
                -1.0, 
                -1.0, 
                1.0
            ], 
            "type" : "VEC4"
        }, 
        {
            "bufferView" : 4, 
            "componentType" : 5126, 
            "count" : 450, 
            "max" : [
                1.0, 
                1.0
            ], 
            "min" : [
                0.0, 
                0.0
            ], 
            "type" : "VEC2"
        }
    ], 
    "asset" : {
        "generator" : "Khronos Blender glTF 2.0 exporter", 
        "version" : "2.0"
    }, 
    "bufferViews" : [
        {
            "buffer" : 0, 
            "byteLength" : 2736, 
            "byteOffset" : 0, 
            "target" : 34963
        }, 
        {
            "buffer" : 0, 
            "byteLength" : 5400, 
            "byteOffset" : 2736, 
            "target" : 34962
        }, 
        {
            "buffer" : 0, 
            "byteLength" : 5400, 
            "byteOffset" : 8136, 
            "target" : 34962
        }, 
        {
            "buffer" : 0, 
            "byteLength" : 7200, 
            "byteOffset" : 13536, 
            "target" : 34962
        }, 
        {
            "buffer" : 0, 
            "byteLength" : 3600, 
            "byteOffset" : 20736, 
            "target" : 34962
        }
    ], 
    "buffers" : [
        {
            "byteLength" : 24336, 
            "uri" : "data:application/octet-stream;base64,"
        }
    ], 
    "images" : [
        {
            "mimeType" : "image/jpeg", 
            "name" : "plane_trainer_diffuse", 
            "uri" : "data:image/jpeg;base64,"
        }
    ], 
    "materials" : [
        {
            "name" : "TrainerPlane", 
            "pbrMetallicRoughness" : {
                "baseColorFactor" : [
                    0.6400000190734865, 
                    0.6400000190734865, 
                    0.6400000190734865, 
                    1.0
                ], 
                "baseColorTexture" : {
                    "index" : 0
                }, 
                "metallicFactor" : 0.0
            }
        }
    ], 
    "meshes" : [
        {
            "name" : "TrainerPlaneMesh", 
            "primitives" : [
                {
                    "attributes" : {
                        "NORMAL" : 2, 
                        "POSITION" : 1, 
                        "TANGENT" : 3, 
                        "TEXCOORD_0" : 4
                    }, 
                    "indices" : 0, 
                    "material" : 0
                }
            ]
        }
    ], 
    "nodes" : [
        {
            "mesh" : 0, 
            "name" : "TrainerPlane"
        }
    ], 
    "samplers" : [
        {}
    ], 
    "scene" : 0, 
    "scenes" : [
        {
            "name" : "Scene", 
            "nodes" : [
                0
            ]
        }
    ], 
    "textures" : [
        {
            "sampler" : 0, 
            "source" : 0
        }
    ]
}
