# Blender v2.74 (sub 0) OBJ File: 'test_models.blend'
# www.blender.org
mtllib complex.mtl
o Cube_03_Cube.002
v 1.000000 -1.000000 2.391829
v 1.000000 -1.000000 4.391829
v -1.000000 -1.000000 4.391829
v -1.000000 -1.000000 2.391829
v 1.000000 1.000000 2.391829
v 0.999999 1.000000 4.391829
v -1.000000 1.000000 4.391829
v -1.000000 1.000000 2.391829
vt 0.333333 0.333333
vt 0.333333 0.666667
vt 0.000000 0.666667
vt 0.666667 0.000000
vt 0.666667 0.333333
vt 0.000000 0.333333
vt 0.000000 0.000000
vt 0.333333 0.000000
vt 1.000000 0.000000
vt 0.000000 1.000000
vt 0.666667 0.666667
vt 1.000000 0.333333
vt 0.333333 1.000000
vn 0.000000 -1.000000 0.000000
vn 0.000000 1.000000 0.000000
vn 1.000000 0.000000 0.000000
vn -0.000000 -0.000000 1.000000
vn -1.000000 -0.000000 -0.000000
vn 0.000000 0.000000 -1.000000
usemtl SimpleMat
s off
f 1/1/1 2/2/1 3/3/1
f 8/4/2 7/5/2 6/1/2
f 5/6/3 6/7/3 2/8/3
f 6/5/4 7/4/4 3/9/4
f 7/10/5 8/3/5 4/2/5
f 1/5/6 4/11/6 8/2/6
f 4/6/1 1/1/1 3/3/1
f 5/8/2 8/4/2 6/1/2
f 1/1/3 5/6/3 2/8/3
f 2/12/4 6/5/4 3/9/4
f 3/13/5 7/10/5 4/2/5
f 5/1/6 1/5/6 8/2/6
o Cube_02_Cube.001
v -4.028222 -1.000000 -1.000000
v -4.028222 -1.000000 1.000000
v -6.028222 -1.000000 1.000000
v -6.028221 -1.000000 -1.000000
v -4.028221 1.000000 -0.999999
v -4.028222 1.000000 1.000001
v -6.028222 1.000000 1.000000
v -6.028222 1.000000 -1.000000
vt 0.000000 1.000000
vt 0.000000 0.666667
vt 0.333333 0.666667
vt 1.000000 0.333333
vt 0.666667 0.333333
vt 0.666667 0.000000
vt 0.000000 0.333333
vt 0.333333 0.333333
vt 0.333333 0.000000
vt 1.000000 0.666667
vt 0.666667 0.666667
vt 0.333333 1.000000
vt 1.000000 0.000000
vt 0.000000 0.000000
vn 0.000000 -1.000000 0.000000
vn 0.000000 1.000000 0.000000
vn 1.000000 0.000000 0.000000
vn -0.000000 0.000000 1.000000
vn -1.000000 -0.000000 -0.000000
vn 0.000000 0.000000 -1.000000
usemtl SimpleMat
s off
f 10/14/7 11/15/7 12/16/7
f 16/17/8 15/18/8 14/19/8
f 13/15/9 14/20/9 10/21/9
f 14/22/10 15/19/10 11/18/10
f 15/23/11 16/24/11 12/18/11
f 9/22/12 12/21/12 16/20/12
f 9/25/7 10/14/7 12/16/7
f 13/26/8 16/17/8 14/19/8
f 9/16/9 13/15/9 10/21/9
f 10/21/10 14/22/10 11/18/10
f 11/17/11 15/23/11 12/18/11
f 13/27/12 9/22/12 16/20/12
o Cube_01_Cube
v 1.000000 -1.000000 -1.000000
v 1.000000 -1.000000 1.000000
v -1.000000 -1.000000 1.000000
v -1.000000 -1.000000 -1.000000
v 1.000000 1.000000 -0.999999
v 0.999999 1.000000 1.000001
v -1.000000 1.000000 1.000000
v -1.000000 1.000000 -1.000000
vt 0.333333 0.666667
vt 0.333333 1.000000
vt 0.000000 1.000000
vt 0.666667 0.666667
vt 0.333333 0.333333
vt 0.333333 0.000000
vt 0.666667 0.000000
vt 0.000000 0.000000
vt 1.000000 0.333333
vt 0.666667 0.333333
vt 0.000000 0.666667
vt 0.000000 0.333333
vt 1.000000 0.000000
vn 0.000000 -1.000000 0.000000
vn 0.000000 1.000000 0.000000
vn 1.000000 0.000000 0.000000
vn -0.000000 0.000000 1.000000
vn -1.000000 -0.000000 -0.000000
vn 0.000000 0.000000 -1.000000
usemtl SimpleMat
s off
f 18/28/13 19/29/13 20/30/13
f 24/31/14 23/28/14 22/32/14
f 21/32/15 22/33/15 18/34/15
f 22/35/16 23/33/16 19/32/16
f 19/36/17 23/37/17 24/34/17
f 17/32/18 20/28/18 24/38/18
f 17/38/13 18/28/13 20/30/13
f 21/37/14 24/31/14 22/32/14
f 17/37/15 21/32/15 18/34/15
f 18/39/16 22/35/16 19/32/16
f 20/40/17 19/36/17 24/34/17
f 21/39/18 17/32/18 24/38/18
