{
    "accessors" : [
        {
            "bufferView" : 0, 
            "componentType" : 5123, 
            "count" : 684, 
            "max" : [
                449
            ], 
            "min" : [
                0
            ], 
            "type" : "SCALAR"
        }, 
        {
            "bufferView" : 1, 
            "componentType" : 5126, 
            "count" : 450, 
            "max" : [
                2.794454574584961, 
                1.2681195735931396, 
                3.3922510147094727
            ], 
            "min" : [
                -2.794454574584961, 
                -0.34309864044189453, 
                -1.4374386072158813
            ], 
            "type" : "VEC3"
        }, 
        {
            "bufferView" : 2, 
            "componentType" : 5126, 
            "count" : 450, 
            "max" : [
                1.0, 
                1.0, 
                1.0
            ], 
            "min" : [
                -1.0, 
                -1.0, 
                -0.9148247241973877
            ], 
            "type" : "VEC3"
        }, 
        {
            "bufferView" : 3, 
            "componentType" : 5126, 
            "count" : 450, 
            "max" : [
                1.0, 
                1.0, 
                1.0, 
                1.0
            ], 
            "min" : [
                -1.0, 
                -1.0, 
                -0.9944146871566772, 
                1.0
            ], 
            "type" : "VEC4"
        }, 
        {
            "bufferView" : 4, 
            "componentType" : 5126, 
            "count" : 450, 
            "max" : [
                1.0, 
                1.0
            ], 
            "min" : [
                0.0, 
                0.0
            ], 
            "type" : "VEC2"
        }, 
        {
            "bufferView" : 5, 
            "componentType" : 5121, 
            "count" : 36, 
            "max" : [
                23
            ], 
            "min" : [
                0
            ], 
            "type" : "SCALAR"
        }, 
        {
            "bufferView" : 6, 
            "componentType" : 5126, 
            "count" : 24, 
            "max" : [
                1.0, 
                1.0, 
                1.0
            ], 
            "min" : [
                -1.0, 
                -1.0, 
                -1.0
            ], 
            "type" : "VEC3"
        }, 
        {
            "bufferView" : 7, 
            "componentType" : 5126, 
            "count" : 24, 
            "max" : [
                1.0, 
                1.0, 
                1.0
            ], 
            "min" : [
                -1.0, 
                -1.0, 
                -1.0
            ], 
            "type" : "VEC3"
        }, 
        {
            "bufferView" : 8, 
            "componentType" : 5121, 
            "count" : 36, 
            "max" : [
                23
            ], 
            "min" : [
                0
            ], 
            "type" : "SCALAR"
        }, 
        {
            "bufferView" : 9, 
            "componentType" : 5126, 
            "count" : 24, 
            "max" : [
                1.0, 
                1.0, 
                1.0
            ], 
            "min" : [
                -1.0, 
                -1.0, 
                -1.0
            ], 
            "type" : "VEC3"
        }, 
        {
            "bufferView" : 10, 
            "componentType" : 5126, 
            "count" : 24, 
            "max" : [
                1.0, 
                1.0, 
                1.0
            ], 
            "min" : [
                -1.0, 
                -1.0, 
                -1.0
            ], 
            "type" : "VEC3"
        }, 
        {
            "bufferView" : 11, 
            "componentType" : 5121, 
            "count" : 36, 
            "max" : [
                23
            ], 
            "min" : [
                0
            ], 
            "type" : "SCALAR"
        }, 
        {
            "bufferView" : 12, 
            "componentType" : 5126, 
            "count" : 24, 
            "max" : [
                1.0, 
                1.0, 
                1.0
            ], 
            "min" : [
                -1.0, 
                -1.0, 
                -1.0
            ], 
            "type" : "VEC3"
        }, 
        {
            "bufferView" : 13, 
            "componentType" : 5126, 
            "count" : 24, 
            "max" : [
                1.0, 
                1.0, 
                1.0
            ], 
            "min" : [
                -1.0, 
                -1.0, 
                -1.0
            ], 
            "type" : "VEC3"
        }
    ], 
    "asset" : {
        "generator" : "Khronos Blender glTF 2.0 exporter", 
        "version" : "2.0"
    }, 
    "bufferViews" : [
        {
            "buffer" : 0, 
            "byteLength" : 1368, 
            "byteOffset" : 0, 
            "target" : 34963
        }, 
        {
            "buffer" : 0, 
            "byteLength" : 5400, 
            "byteOffset" : 1368, 
            "target" : 34962
        }, 
        {
            "buffer" : 0, 
            "byteLength" : 5400, 
            "byteOffset" : 6768, 
            "target" : 34962
        }, 
        {
            "buffer" : 0, 
            "byteLength" : 7200, 
            "byteOffset" : 12168, 
            "target" : 34962
        }, 
        {
            "buffer" : 0, 
            "byteLength" : 3600, 
            "byteOffset" : 19368, 
            "target" : 34962
        }, 
        {
            "buffer" : 0, 
            "byteLength" : 36, 
            "byteOffset" : 22968, 
            "target" : 34963
        }, 
        {
            "buffer" : 0, 
            "byteLength" : 288, 
            "byteOffset" : 23004, 
            "target" : 34962
        }, 
        {
            "buffer" : 0, 
            "byteLength" : 288, 
            "byteOffset" : 23292, 
            "target" : 34962
        }, 
        {
            "buffer" : 0, 
            "byteLength" : 36, 
            "byteOffset" : 23580, 
            "target" : 34963
        }, 
        {
            "buffer" : 0, 
            "byteLength" : 288, 
            "byteOffset" : 23616, 
            "target" : 34962
        }, 
        {
            "buffer" : 0, 
            "byteLength" : 288, 
            "byteOffset" : 23904, 
            "target" : 34962
        }, 
        {
            "buffer" : 0, 
            "byteLength" : 36, 
            "byteOffset" : 24192, 
            "target" : 34963
        }, 
        {
            "buffer" : 0, 
            "byteLength" : 288, 
            "byteOffset" : 24228, 
            "target" : 34962
        }, 
        {
            "buffer" : 0, 
            "byteLength" : 288, 
            "byteOffset" : 24516, 
            "target" : 34962
        }
    ], 
    "buffers" : [
        {
            "byteLength" : 24804, 
            "uri" : "data:application/octet-stream;base64,"
        }
    ], 
    "materials" : [
        {
            "name" : "TrainerPlane", 
            "pbrMetallicRoughness" : {
                "baseColorFactor" : [
                    0.6400000190734865, 
                    0.6400000190734865, 
                    0.6400000190734865, 
                    1.0
                ], 
                "metallicFactor" : 0.0
            }
        }
    ], 
    "meshes" : [
        {
            "name" : "TrainerPlaneMesh", 
            "primitives" : [
                {
                    "attributes" : {
                        "NORMAL" : 2, 
                        "POSITION" : 1, 
                        "TANGENT" : 3, 
                        "TEXCOORD_0" : 4
                    }, 
                    "indices" : 0, 
                    "material" : 0
                }
            ]
        }, 
        {
            "name" : "Cube.002", 
            "primitives" : [
                {
                    "attributes" : {
                        "NORMAL" : 7, 
                        "POSITION" : 6
                    }, 
                    "indices" : 5
                }
            ]
        }, 
        {
            "name" : "Cube.004", 
            "primitives" : [
                {
                    "attributes" : {
                        "NORMAL" : 10, 
                        "POSITION" : 9
                    }, 
                    "indices" : 8
                }
            ]
        }, 
        {
            "name" : "Cube.003", 
            "primitives" : [
                {
                    "attributes" : {
                        "NORMAL" : 13, 
                        "POSITION" : 12
                    }, 
                    "indices" : 11
                }
            ]
        }
    ], 
    "nodes" : [
        {
            "mesh" : 1, 
            "name" : "Cube", 
            "rotation" : [
                -0.08717440813779831, 
                0.0, 
                -0.0, 
                0.9961931705474854
            ], 
            "scale" : [
                0.623753011226654, 
                0.7576919794082642, 
                1.4063650369644165
            ], 
            "translation" : [
                0.0, 
                0.6082749366760254, 
                2.221383571624756
            ]
        }, 
        {
            "mesh" : 3, 
            "name" : "Cube.001", 
            "rotation" : [
                -0.04967355355620384, 
                0.0, 
                -0.0, 
                0.9987655282020569
            ], 
            "scale" : [
                0.40280240774154663, 
                0.3956283628940582, 
                0.4690210521221161
            ], 
            "translation" : [
                0.0, 
                -0.04790538549423218, 
                -1.1780295372009277
            ]
        }, 
        {
            "mesh" : 2, 
            "name" : "Cube.002", 
            "rotation" : [
                -0.015635527670383453, 
                -0.08419686555862427, 
                0.04678693041205406, 
                0.9952273368835449
            ], 
            "scale" : [
                0.8137865662574768, 
                0.12339276075363159, 
                0.5049045085906982
            ], 
            "translation" : [
                2.080197811126709, 
                -0.11425834149122238, 
                0.23586207628250122
            ]
        }, 
        {
            "name" : "Decals"
        }, 
        {
            "children" : [
                3
            ], 
            "mesh" : 0, 
            "name" : "TrainerPlane"
        }
    ], 
    "scene" : 0, 
    "scenes" : [
        {
            "name" : "Scene", 
            "nodes" : [
                2, 
                1, 
                0, 
                4
            ]
        }
    ]
}
